<svg width="2000" height="2000" xmlns="http://www.w3.org/2000/svg"><defs><linearGradient id="a" gradientTransform="rotate(90)"><stop offset="5%" stop-color="#282828"/><stop offset="95%" stop-color="#5d5d5d"/></linearGradient><linearGradient id="b" gradientTransform="rotate(90)"><stop offset="5%" stop-color="#252525"/><stop offset="95%" stop-color="#5b5b5b"/></linearGradient><linearGradient id="c" gradientTransform="rotate(90)"><stop offset="5%" stop-color="#232323"/><stop offset="95%" stop-color="#5a5a5a"/></linearGradient><linearGradient id="d" gradientTransform="rotate(90)"><stop offset="5%" stop-color="#202020"/><stop offset="95%" stop-color="#575757"/></linearGradient><linearGradient id="e" gradientTransform="rotate(90)"><stop offset="5%" stop-color="#1a1a1a"/><stop offset="95%" stop-color="#535353"/></linearGradient><linearGradient id="f" gradientTransform="rotate(90)"><stop offset="5%" stop-color="#131313"/><stop offset="95%" stop-color="#4e4e4e"/></linearGradient><linearGradient id="g" gradientTransform="rotate(90)"><stop offset="5%" stop-color="#0c0c0c"/><stop offset="95%" stop-color="#484848"/></linearGradient><linearGradient id="h" gradientTransform="rotate(90)"><stop offset="5%" stop-color="#050505"/><stop offset="95%" stop-color="#434343"/></linearGradient><linearGradient id="i" gradientTransform="rotate(90)"><stop offset="5%"/><stop offset="95%" stop-color="#3f3f3f"/></linearGradient><linearGradient id="j" gradientTransform="rotate(90)"><stop offset="5%"/><stop offset="95%" stop-color="#3f3f3f"/></linearGradient><linearGradient id="k" gradientTransform="rotate(90)"><stop offset="5%"/><stop offset="95%" stop-color="#3f3f3f"/></linearGradient><linearGradient id="l" gradientTransform="rotate(90)"><stop offset="5%"/><stop offset="95%" stop-color="#3f3f3f"/></linearGradient><linearGradient id="m" gradientTransform="rotate(90)"><stop offset="5%"/><stop offset="95%" stop-color="#3f3f3f"/></linearGradient></defs><path fill="#2b2b2b" d="M0 0h2000v2000H0z"/><path d="M0 142c119.66 23.387 239.322 46.774 340 42 100.678-4.774 182.374-37.71 302-49s277.181-.934 386 5c108.819 5.934 168.9 7.446 256 3s201.22-14.85 341-18c139.78-3.15 305.223.957 372 5 66.777 4.043 34.888 8.021 43 12l-40 1858H0Z" fill="url(#a)"/><path d="M0 285c116.065 16.335 232.131 32.67 334 23 101.869-9.67 189.542-45.342 289-54 99.458-8.658 210.703 9.7 342 14 131.297 4.3 282.647-5.456 407 1 124.353 6.456 221.71 29.123 335 43 113.29 13.877 242.511 18.965 294 13 51.489-5.965 25.244-22.982 39-40l-40 1715H0Z" fill="url(#b)"/><path d="M0 428c140.275 9.182 280.55 18.363 378 22 97.45 3.637 152.075 1.728 240 1 87.925-.728 209.151-.275 336-18 126.849-17.725 259.32-53.627 375-45 115.68 8.627 214.568 61.784 331 65 116.432 3.216 250.41-43.51 310-56 59.59-12.49 44.795 9.255 70 31l-40 1572H0Z" fill="url(#c)"/><path d="M0 571c110.574 20.572 221.148 41.143 318 39 96.852-2.143 179.983-27.001 303-39 123.017-11.999 285.922-11.138 404-17 118.078-5.862 191.33-18.448 276-20 84.67-1.552 180.757 7.928 327 22s342.64 32.735 413 36c70.36 3.265 14.68-8.867-1-21l-40 1429H0Z" fill="url(#d)"/><path d="M0 714c123.264-11.887 246.529-23.773 356-21 109.471 2.773 205.15 20.206 296 17 90.85-3.206 176.874-27.053 304-32 127.126-4.947 295.353 9.004 403 11 107.647 1.996 154.713-7.963 280-5s328.796 18.846 402 26c73.204 7.154 16.102 5.577-1 4l-40 1286H0Z" fill="url(#e)"/><path d="M0 857c108.364-11.435 216.727-22.87 323-30 106.273-7.13 210.454-9.958 312 5 101.546 14.958 200.456 47.701 320 63 119.544 15.299 259.723 13.152 376-3 116.277-16.152 208.651-46.31 326-43 117.349 3.31 259.671 40.089 321 47 61.329 6.911 41.664-16.044 62-39l-40 1143H0Z" fill="url(#f)"/><path d="M0 1000c127.97-22.473 255.941-44.945 363-35s193.205 52.309 302 55c108.795 2.691 240.238-34.29 354-34 113.762.29 209.843 37.85 319 33 109.157-4.85 231.388-52.114 369-54 137.612-1.886 290.603 41.604 342 55 51.397 13.396 1.198-3.302-9-20l-40 1000H0Z" fill="url(#g)"/><path d="M0 1142c87.796-4.48 175.592-8.96 304-7 128.408 1.96 297.427 10.357 408 0 110.573-10.357 162.7-39.469 265-29 102.3 10.469 254.771 60.517 369 66 114.229 5.483 190.216-33.6 318-54 127.784-20.4 307.367-22.114 372-15 64.633 7.114 14.317 23.057 4 39l-40 858H0Z" fill="url(#h)"/><path d="M0 1285c95.865 2.695 191.73 5.39 293-5 101.27-10.39 207.946-33.862 326-30 118.054 3.862 247.487 35.06 377 51 129.513 15.94 259.107 16.623 373 17 113.893.377 212.087.448 330 0 117.913-.448 255.547-1.414 309-7s22.727-15.793 32-26l-40 715H0Z" fill="url(#i)"/><path d="M0 1428c80.71.09 161.419.179 286 7 124.581 6.821 293.035 20.375 410 29 116.965 8.625 182.44 12.322 280-7s227.201-61.664 352-61c124.799.664 244.753 44.333 361 50 116.247 5.667 228.785-26.666 280-36s41.108 4.333 71 18l-40 572H0Z" fill="url(#j)"/><path d="M0 1571c98.112-14.905 196.224-29.81 322-20 125.776 9.81 279.214 44.334 386 36 106.786-8.334 166.918-59.526 275-53 108.082 6.526 264.115 70.77 370 79 105.885 8.23 161.623-39.553 270-48 108.377-8.447 269.393 22.444 341 30 71.607 7.556 53.803-8.222 76-24l-40 429H0Z" fill="url(#k)"/><path d="M0 1714c94.881-8.578 189.762-17.157 291-23s208.833-8.95 338-6c129.167 2.95 279.907 11.96 406 9 126.093-2.96 227.54-17.886 337-18 109.46-.114 226.931 14.585 340 31 113.069 16.415 221.734 34.547 269 36 47.266 1.453 33.133-13.774 59-29l-40 286H0Z" fill="url(#l)"/><path d="M0 1857c95.692-18.993 191.385-37.986 294-29 102.615 8.986 212.153 45.95 341 49 128.847 3.05 277.003-27.812 398-29 120.997-1.188 214.834 27.3 319 31 104.166 3.7 218.66-17.389 343-31s258.526-19.746 311-17c52.474 2.746 23.237 14.373 34 26l-40 143H0Z" fill="url(#m)"/></svg>