<svg width="1000" height="1000" xmlns="http://www.w3.org/2000/svg"><defs><linearGradient id="a" gradientTransform="rotate(90)"><stop offset="5%" stop-color="#f8f8f8"/><stop offset="95%" stop-color="#f9f9f9"/></linearGradient><linearGradient id="b" gradientTransform="rotate(90)"><stop offset="5%" stop-color="#f1f1f1"/><stop offset="95%" stop-color="#f4f4f4"/></linearGradient><linearGradient id="c" gradientTransform="rotate(90)"><stop offset="5%" stop-color="#eaeaea"/><stop offset="95%" stop-color="#efefef"/></linearGradient><linearGradient id="d" gradientTransform="rotate(90)"><stop offset="5%" stop-color="#e3e3e3"/><stop offset="95%" stop-color="#eaeaea"/></linearGradient><linearGradient id="e" gradientTransform="rotate(90)"><stop offset="5%" stop-color="#dcdcdc"/><stop offset="95%" stop-color="#e4e4e4"/></linearGradient><linearGradient id="f" gradientTransform="rotate(90)"><stop offset="5%" stop-color="#d1d1d1"/><stop offset="95%" stop-color="#dcdcdc"/></linearGradient><linearGradient id="g" gradientTransform="rotate(90)"><stop offset="5%" stop-color="#c2c2c2"/><stop offset="95%" stop-color="#d1d1d1"/></linearGradient><linearGradient id="h" gradientTransform="rotate(90)"><stop offset="5%" stop-color="#b3b3b3"/><stop offset="95%" stop-color="#c6c6c6"/></linearGradient><linearGradient id="i" gradientTransform="rotate(90)"><stop offset="5%" stop-color="#a4a4a4"/><stop offset="95%" stop-color="#bababa"/></linearGradient><linearGradient id="j" gradientTransform="rotate(90)"><stop offset="5%" stop-color="#969696"/><stop offset="95%" stop-color="#b0b0b0"/></linearGradient><linearGradient id="k" gradientTransform="rotate(90)"><stop offset="5%" stop-color="#878787"/><stop offset="95%" stop-color="#a5a5a5"/></linearGradient></defs><path fill="#fff" d="M0 0h1000v1000H0z"/><path d="M0 83c66.382 8.029 132.764 16.058 185 11 52.236-5.058 90.328-23.202 144-30 53.672-6.798 122.926-2.25 176 9s89.968 29.201 147 26c57.032-3.201 134.2-27.554 198-38 63.8-10.446 114.228-6.985 137-1 22.772 5.985 17.886 14.492 53 23l-40 917H0Z" fill="url(#a)"/><path d="M0 166c47.818 10.684 95.637 21.367 152 18 56.363-3.367 121.271-20.785 182-25s117.278 4.774 171 11c53.722 6.226 104.616 9.69 150 2 45.384-7.69 85.257-26.532 156-29s172.355 11.438 209 18c36.645 6.562 8.322 5.781 20 5l-40 834H0Z" fill="url(#b)"/><path d="M0 250c65.853-13.263 131.705-26.526 187-19 55.295 7.526 100.03 35.84 145 37 44.97 1.16 90.171-24.833 144-31 53.829-6.167 116.284 7.491 173 7 56.716-.491 107.693-15.132 177-17 69.307-1.868 156.945 9.038 189 15 32.055 5.962 8.528 6.981 25 8l-40 750H0Z" fill="url(#c)"/><path d="M0 333c42.084-1.962 84.167-3.924 142 2 57.833 5.924 131.415 19.735 196 22 64.585 2.265 120.173-7.018 176-10s111.892.335 159-4c47.108-4.335 85.26-16.32 141-16 55.74.32 129.069 12.949 163 16 33.931 3.051 28.466-3.474 63-10l-40 667H0Z" fill="url(#d)"/><path d="M0 416c50.763-.515 101.526-1.03 152-5 50.474-3.97 100.658-11.398 164-8 63.342 3.398 139.84 17.62 194 20 54.16 2.38 85.981-7.084 136-8 50.019-.916 118.236 6.715 192 11s153.075 5.224 181 3c27.925-2.224 4.462-7.612 21-13l-40 584H0Z" fill="url(#e)"/><path d="M0 499c50.18 9.123 100.36 18.247 149 16s95.742-15.863 159-21c63.258-5.137 142.674-1.794 200 5 57.326 6.794 92.562 17.037 136 19 43.438 1.963 95.08-4.356 167-15s164.12-25.613 199-27c34.88-1.387 12.44 10.806 30 23l-40 501H0Z" fill="url(#f)"/><path d="M0 583c45.887.641 91.774 1.282 148-2s122.79-10.487 179-11c56.21-.513 102.064 5.666 163 13 60.936 7.334 136.952 15.821 190 10s83.128-25.952 137-25c53.872.952 131.535 22.986 166 29 34.465 6.014 25.733-3.993 57-14l-40 417H0Z" fill="url(#g)"/><path d="M0 666c69.87 7.405 139.741 14.81 191 6 51.259-8.81 83.906-33.835 132-29 48.094 4.835 111.636 39.53 174 45 62.364 5.47 123.551-18.286 176-27 52.449-8.714 96.16-2.384 154-4s129.812-11.176 161-11c31.188.176 21.594 10.088 52 20l-40 334H0Z" fill="url(#h)"/><path d="M0 750c57.759 4.866 115.517 9.731 168 16 52.483 6.269 99.69 13.94 158 5s127.724-34.492 187-32c59.276 2.492 108.414 33.029 159 33 50.586-.029 102.62-30.623 170-34 67.38-3.377 150.109 20.464 179 27 28.891 6.536 3.946-4.232 19-15l-40 250H0Z" fill="url(#i)"/><path d="M0 833c57.704-9.017 115.409-18.034 169-21 53.591-2.966 103.07.118 156-1 52.93-1.118 109.313-6.438 171 0s128.679 24.633 180 26c51.321 1.367 86.971-14.093 147-19 60.029-4.907 144.437.741 178 5 33.563 4.259 16.282 7.13 39 10l-40 167H0Z" fill="url(#j)"/><path d="M0 916c65.213-1.584 130.426-3.167 181 2 50.574 5.167 86.508 17.086 137 21 50.492 3.914 115.54-.175 181-8s131.33-19.386 187-25c55.67-5.614 101.142-5.28 161-4 59.858 1.28 134.102 3.509 162 6 27.898 2.491 9.449 5.246 31 8l-40 84H0Z" fill="url(#k)"/></svg>